<svg height="512pt" viewBox="0 0 512 512" width="512pt" xmlns="http://www.w3.org/2000/svg"><path d="m331 436v61c0 8.398438-6.597656 15-15 15h-301c-8.402344 0-15-6.601562-15-15v-61c0-52.800781 40.300781-96.300781 91-103.5v-1.5l63.601562 46.199219c2.996094 3.601562 7.199219 5.398437 11.398438 5.398437s8.402344-1.796875 11.398438-5.398437l63.601562-46.199219v1.5c50.699219 7.199219 90 50.699219 90 103.5zm0 0" fill="#5bc980"/><path d="m331 436v61c0 8.398438-6.597656 15-15 15h-150v-129.402344c4.199219 0 8.402344-1.796875 11.398438-5.398437l63.601562-46.199219v1.5c50.699219 7.199219 90 50.699219 90 103.5zm0 0" fill="#00ab5e"/><path d="m241 271v60l-63.601562 76.199219c-2.996094 3.601562-7.199219 5.398437-11.398438 5.398437s-8.402344-1.796875-11.398438-5.398437l-63.601562-76.199219v-60zm0 0" fill="#ffbd86"/><path d="m166 271h75v60l-63.601562 76.199219c-2.996094 3.601562-7.199219 5.398437-11.398438 5.398437zm0 0" fill="#f6a96c"/><path d="m301 121v75c0 74.699219-60.300781 135-135 135s-135-60.300781-135-135v-75zm0 0" fill="#fed2a4"/><path d="m301 121v75c0 74.699219-60.300781 135-135 135v-210zm0 0" fill="#ffbd86"/><path d="m206.5 266.5c-11.101562 11.398438-25.800781 16.800781-40.5 16.800781s-29.398438-5.402343-40.5-16.800781c-6-5.699219-6-15.300781 0-21 5.699219-6 15.300781-6 21 0 5.402344 5.101562 12.300781 7.800781 19.5 7.800781s14.101562-2.699219 19.503906-7.800781c5.699219-6 15.296875-6 20.996094 0 6 5.699219 6 15.300781 0 21zm0 0" fill="#ffbd86"/><path d="m106 451h-30c-8.289062 0-15-6.710938-15-15s6.710938-15 15-15h30c8.289062 0 15 6.710938 15 15s-6.710938 15-15 15zm0 0" fill="#faecd8"/><path d="m512 361v136c0 8.398438-6.597656 15-15 15h-226v-151l37.5-30h172.597656zm0 0" fill="#ff9100"/><path d="m467 451h-30c-8.289062 0-15-6.710938-15-15s6.710938-15 15-15h30c8.289062 0 15 6.710938 15 15s-6.710938 15-15 15zm0 0" fill="#523522"/><path d="m512 316v45h-241v-45c0-8.402344 6.597656-15 15-15h211c8.402344 0 15 6.597656 15 15zm0 0" fill="#fdbf00"/><path d="m206.5 266.5c-11.101562 11.398438-25.800781 16.800781-40.5 16.800781v-30c7.199219 0 14.097656-2.699219 19.5-7.800781 5.699219-6 15.300781-6 21 0 6 5.699219 6 15.300781 0 21zm0 0" fill="#f6a96c"/><path d="m301 121-55.5 55.5c-3 3-6.601562 4.5-10.800781 4.5h-137.398438c-4.199219 0-7.800781-1.5-10.800781-4.5l-55.5-55.5 40.199219-30h195.902343zm0 0" fill="#714c2f"/><path d="m234.699219 181h-68.699219v-90h101.101562l33.898438 30-55.5 55.5c-3 3-6.601562 4.5-10.800781 4.5zm0 0" fill="#523522"/><path d="m301 106v15h-270v-15c0-57.898438 47.101562-106 105-106h60c57.898438 0 105 48.101562 105 106zm0 0" fill="#5bc980"/><path d="m301 106v15h-135v-121h30c57.898438 0 105 48.101562 105 106zm0 0" fill="#00ab5e"/><path d="m211 76c0 8.289062-6.710938 15-15 15h-60c-8.289062 0-15-6.710938-15-15s6.710938-15 15-15h60c8.289062 0 15 6.710938 15 15zm0 0" fill="#faecd8"/><path d="m211 76c0 8.289062-6.710938 15-15 15h-30v-30h30c8.289062 0 15 6.710938 15 15zm0 0" fill="#f4d7af"/></svg>